<svg width="50" height="29" viewBox="0 0 50 29" fill="none" xmlns="http://www.w3.org/2000/svg">
<path d="M47.0503 3.28068C45.6819 1.78372 43.1665 0 38.964 0C33.8775 0 29.241 1.66649 25.9712 3.26806C24.5992 1.77471 22.0874 0 17.8957 0C8.1025 0 0 6.1754 0 6.1754V28.4314H7.89544V7.47036L17.2583 7.4397C21.1853 7.4397 21.0809 11.9486 21.0395 12.6141L21.0233 28.4314H28.9583V7.47036L38.3212 7.4397C42.2482 7.4397 42.1456 11.9486 42.1024 12.6141L42.088 28.4314H49.9816V12.3237C50.0483 11.1875 50.0951 6.61367 47.0431 3.28068" fill="#141414"/>
</svg>
