<svg width="21" height="20" viewBox="0 0 21 20" fill="none" xmlns="http://www.w3.org/2000/svg">
<circle cx="10.5413" cy="10" r="10" fill="#141414"/>
<path d="M15.6863 7.38448C15.367 7.05687 14.7801 6.6665 13.7995 6.6665C12.6127 6.6665 11.5308 7.03122 10.7679 7.38172C10.4477 7.0549 9.86165 6.6665 8.88359 6.6665C6.5985 6.6665 4.70792 8.01799 4.70792 8.01799V12.8887H6.55018V8.3014L8.73486 8.29469C9.65116 8.29469 9.62679 9.28146 9.61713 9.42711L9.61335 12.8887H11.4649V8.3014L13.6495 8.29469C14.5658 8.29469 14.5419 9.28146 14.5318 9.42711L14.5284 12.8887H16.3703V9.36356C16.3858 9.1149 16.3968 8.11391 15.6846 7.38448" fill="white"/>
</svg>
