<svg width="29" height="41" viewBox="0 0 29 41" fill="none" xmlns="http://www.w3.org/2000/svg">
<path d="M14.8373 21.8924C12.341 21.8924 9.67165 21.6874 7.5926 21.4773V7.256L16.6913 7.22623C20.7005 7.22623 21.4051 11.1581 21.4051 12.2492L21.3912 18.0831C21.251 19.4264 20.0738 21.8941 14.8373 21.8941V21.8924ZM28.9821 17.7959V11.9672C29.0444 10.8639 29.0911 6.42409 26.1569 3.18578C24.8396 1.73212 22.4229 0 18.3808 0C8.97056 0 0 5.99675 0 5.99675V41H7.5926V27.0029C9.73224 27.9276 12.3324 28.7543 14.8373 28.7543C19.8419 28.7543 24.5903 27.2814 26.8113 24.3758C28.2537 22.4925 29.0248 20.1713 28.9994 17.7889L28.9821 17.7959Z" fill="#141414"/>
</svg>
