<svg width="21" height="20" viewBox="0 0 21 20" fill="none" xmlns="http://www.w3.org/2000/svg">
<circle cx="10.5413" cy="10" r="10" fill="#141414"/>
<path d="M11.1227 10.8056C10.5201 10.8056 9.8758 10.7607 9.37396 10.7145V7.59278L11.5702 7.58625C12.5379 7.58625 12.708 8.44934 12.708 8.68885L12.7047 9.96946C12.6708 10.2643 12.3867 10.806 11.1227 10.806V10.8056ZM14.5369 9.90641V8.62695C14.552 8.38475 14.5633 7.41017 13.855 6.69932C13.537 6.38022 12.9537 6 11.978 6C9.70657 6 7.54126 7.31636 7.54126 7.31636V15H9.37396V11.9275C9.89042 12.1305 10.518 12.3119 11.1227 12.3119C12.3307 12.3119 13.4768 11.9886 14.0129 11.3508C14.3611 10.9374 14.5472 10.4278 14.5411 9.90487L14.5369 9.90641Z" fill="white"/>
</svg>
