<svg xmlns="http://www.w3.org/2000/svg" width="47" height="43" viewBox="0 0 47 43" fill="none">
<path fill-rule="evenodd" clip-rule="evenodd" d="M28.2788 14.4389V8.72037H41.4523V0H5.58423V8.72037H18.7577V14.4365C8.05151 14.9247 0 17.0323 0 19.5556C0 22.0789 8.05151 24.184 18.7577 24.6747V43H28.2788V24.6698C38.968 24.1816 47 22.0764 47 19.5556C47 17.0347 38.968 14.9295 28.2788 14.4389ZM28.2788 23.1157V23.1109C28.0112 23.1302 26.6315 23.2124 23.5535 23.2124C21.096 23.2124 19.366 23.1399 18.7577 23.1109V23.1181C9.29732 22.7049 2.23612 21.0686 2.23612 19.1108C2.23612 17.1555 9.29732 15.5192 18.7577 15.0987V21.4891C19.3757 21.5326 21.1471 21.6366 23.5949 21.6366C26.5318 21.6366 28.0039 21.5157 28.2788 21.4915V15.1035C37.7197 15.5217 44.7639 17.1579 44.7639 19.1108C44.7639 21.0686 37.7197 22.7 28.2788 23.1157Z" fill="#141414"/>
</svg>