<svg xmlns="http://www.w3.org/2000/svg" width="60" height="60" viewBox="0 0 60 60" fill="none">
<path d="M51.2901 0.000118983H8.71005C6.29742 -0.00034602 4.11276 0.981339 2.54192 2.55871C0.970126 4.13467 -0.000356978 6.31754 1.67022e-07 8.71017V12.5807C-0.000464836 14.9733 0.970054 17.1552 2.54192 18.7312C4.11193 20.3086 6.29706 21.2907 8.71005 21.2898H10.7283V40.6542C10.7287 45.4649 14.6276 49.3628 19.4383 49.3638H20.5725V51.289C20.5716 56.1007 24.4699 59.9995 29.2807 60H44.7653C49.576 59.9995 53.4749 56.1007 53.4749 51.29L53.4744 20.9874C57.2379 20.0136 59.9979 16.6068 60.0007 12.5806V8.71005C59.9965 3.91276 56.0879 0.00321431 51.2906 0L51.2901 0.000118983ZM8.71005 19.355C6.82623 19.3545 5.14003 18.5942 3.91324 17.3656C2.68835 16.1351 1.93596 14.4462 1.93596 12.5809V8.71041C1.93643 6.84516 2.68885 5.15622 3.91324 3.92574C5.14003 2.69621 6.82576 1.93727 8.71005 1.93632H10.7283V19.3555H8.71005V19.355ZM14.6466 45.4456C13.4194 44.2171 12.6633 42.5289 12.6628 40.6558V1.93537H41.6951V40.6558C41.6947 42.5289 40.9385 44.2171 39.7113 45.4456C38.4827 46.6729 36.7946 47.429 34.9215 47.4295L21.6393 47.4299L21.5393 47.4197L21.4393 47.4299H19.4379C17.5638 47.4295 15.8767 46.6733 14.6472 45.4461L14.6466 45.4456ZM49.5552 56.0809C48.3266 57.3082 46.6385 58.0643 44.7654 58.0648H29.2808C27.4067 58.0643 25.7196 57.3081 24.491 56.0809C23.2637 54.8524 22.5076 53.1642 22.5072 51.2911V49.3659H34.9215C39.7323 49.3654 43.6311 45.4666 43.6311 40.6563L43.6306 10.7764H44.7648C46.6389 10.7768 48.3261 11.533 49.5546 12.7602C50.7819 13.9888 51.538 15.6769 51.5385 17.55V20.0561C51.5231 20.1533 51.518 20.2532 51.5338 20.3556L51.5385 20.3728V51.2908C51.538 53.1649 50.7823 54.852 49.5546 56.0815L49.5552 56.0809ZM58.0652 12.5807C58.068 15.5252 56.1493 18.0578 53.4745 18.9693V17.5505C53.474 12.7397 49.5752 8.84089 44.7649 8.84041H43.6307L43.6312 1.93561H51.2912C53.1533 1.93561 54.8427 2.69547 56.0746 3.92645C57.3051 5.15836 58.0654 6.84778 58.0654 8.70982L58.0652 12.5807Z" fill="black"/>
<path d="M21.7268 23.6421C22.8215 24.594 24.3027 25.1623 25.9209 25.1627H28.4368C29.5979 25.1622 30.6326 25.5742 31.3595 26.208C32.0873 26.8461 32.5002 27.6734 32.5007 28.576C32.4993 29.4787 32.0873 30.3059 31.3595 30.944C30.6327 31.5774 29.598 31.9899 28.4368 31.9894H27.3198L27.1756 31.9745L27.0314 31.9894H22.9848C22.45 31.9894 22.0166 32.4228 22.0166 32.9576C22.0166 33.4924 22.45 33.9258 22.9848 33.9258H26.2079V36.4793C26.2079 37.0141 26.6413 37.4475 27.1761 37.4475C27.7109 37.4475 28.1443 37.0141 28.1443 36.4793V33.9258H28.4377C30.0556 33.9253 31.5371 33.3566 32.6318 32.4052C33.7251 31.4579 34.4389 30.0945 34.438 28.578C34.4394 27.0616 33.7246 25.6981 32.6318 24.7509C31.5371 23.799 30.0559 23.2306 28.4377 23.2303H25.9218C24.7607 23.2307 23.726 22.8187 22.9991 22.1849C22.2713 21.5469 21.8584 20.7195 21.8579 19.8169C21.8593 18.9143 22.2713 18.087 22.9991 17.4489C23.7259 16.8155 24.7606 16.403 25.9218 16.4035H31.3734C31.9082 16.4035 32.3407 15.9701 32.3407 15.4362C32.3407 14.9015 31.9073 14.469 31.3734 14.469H28.1447V11.9318C28.1447 11.397 27.7113 10.9636 27.1765 10.9636C26.6417 10.9636 26.2083 11.397 26.2083 11.9318V14.469H25.9209C24.3031 14.4694 22.8215 15.0382 21.7269 15.9896C20.6336 16.9369 19.9197 18.3003 19.9207 19.8167C19.9197 21.3304 20.6335 22.6938 21.7268 23.6421Z" fill="black"/>
</svg>