<svg xmlns="http://www.w3.org/2000/svg" width="60" height="60" viewBox="0 0 60 60" fill="none">
<path d="M10.9041 54.1142C11.9481 57.6721 15.1963 59.9977 18.7341 59.9967C19.5153 59.9967 20.31 59.8833 21.0945 59.6452L28.5024 57.4814C31.0125 59.0741 33.9863 59.9999 37.1783 59.9999C46.1383 59.9995 53.4006 52.7372 53.4006 43.7776C53.4006 43.0015 53.3424 42.2398 53.2373 41.4926C57.3402 38.5341 59.9987 33.7295 59.9987 28.319C59.996 19.4228 52.7835 12.1717 43.9026 12.1003L42.0681 5.86851C41.5469 4.08652 40.4643 2.61239 39.0734 1.59407C37.683 0.573356 35.9824 -6.10352e-05 34.2102 -6.10352e-05C33.4411 -6.10352e-05 32.6585 0.108754 31.8851 0.335218L31.8884 0.334753L28.9457 1.1862L28.9429 1.18667H28.9415L28.9411 1.18713L21.317 3.43173H21.3156L5.86953 7.96104C4.08706 8.48233 2.61304 9.56494 1.59366 10.9557C0.57387 12.3471 0.000476181 14.0477 0 15.8193C0 16.5894 0.108815 17.3711 0.334815 18.1444L10.9041 54.1142ZM47.2808 53.8803C44.692 56.4668 41.1267 58.0642 37.1783 58.065C34.2421 58.0645 31.5199 57.1805 29.251 55.6646L29.1636 55.6074C28.4145 55.0982 27.7141 54.5206 27.0752 53.8812C24.4887 51.2925 22.8914 47.7272 22.8905 43.7796C22.891 39.8316 24.4879 36.2663 27.0752 33.6781C27.7067 33.0475 28.3972 32.4759 29.1366 31.9714C29.2747 31.9193 29.3965 31.8407 29.4937 31.738C31.7124 30.3187 34.3458 29.4934 37.1777 29.4934C41.1262 29.4939 44.6915 31.0907 47.2803 33.6781C49.2762 35.6753 50.6786 38.2552 51.218 41.1426L51.2487 41.3132C51.3882 42.1145 51.4654 42.938 51.4654 43.7797C51.4645 47.7263 49.8676 51.2917 47.2808 53.8805L47.2808 53.8803ZM28.5609 3.31824L32.4918 16.6763C30.5331 18.5764 29.0525 20.9634 28.2457 23.6414L22.7896 5.01678L28.5609 3.31824ZM58.0639 28.3201C58.0639 32.7773 56.0201 36.7579 52.7966 39.3932C50.8826 32.5654 44.6188 27.5575 37.1791 27.5566C34.4164 27.5566 31.8165 28.2494 29.5397 29.4664C29.5086 29.0893 29.4918 28.7066 29.4918 28.3197C29.4923 24.3833 31.086 20.8171 33.6709 18.2259C33.8267 18.0702 33.9871 17.9172 34.1503 17.7688L34.3005 17.6377C36.6405 15.559 39.6613 14.2356 42.9969 14.0566C43.1471 14.0877 43.3047 14.0877 43.4615 14.0426C43.5675 14.0398 43.6721 14.0347 43.7781 14.0347C47.7127 14.0352 51.2794 15.6372 53.8714 18.2278C56.4611 20.819 58.0631 24.3857 58.0636 28.3202L58.0639 28.3201ZM32.4275 2.19446L32.4308 2.19399C33.026 2.01914 33.6236 1.9373 34.2113 1.93683C35.564 1.93683 36.8666 2.37627 37.9291 3.15561C38.9917 3.93638 39.8111 5.04962 40.2119 6.41543L41.9171 12.2082C39.0079 12.5407 36.3345 13.6399 34.1048 15.3006L30.419 2.77586L32.4275 2.19446ZM3.15429 12.1026C3.93506 11.04 5.0483 10.2206 6.41363 9.82073L20.9324 5.56344L27.5594 28.1856L27.5561 28.3205C27.5561 29.078 27.6064 29.8429 27.7254 30.6004C23.6281 33.5444 20.9571 38.3481 20.9571 43.7787C20.9576 48.6745 23.1292 53.0606 26.5583 56.0344L20.5438 57.7913L20.5345 57.7941C19.9323 57.9759 19.3287 58.0619 18.7344 58.0629C16.0442 58.0629 13.5564 56.2902 12.7616 53.5703L2.19317 17.6008C2.01925 17.007 1.93648 16.4089 1.93648 15.8207C1.93648 14.468 2.37546 13.165 3.15479 12.1025L3.15429 12.1026Z" fill="black"/>
<path d="M39.3798 42.8024H34.9691C34.2739 42.802 33.6549 42.5262 33.2024 42.0812C32.7509 41.6339 32.4779 41.0298 32.477 40.355C32.4775 39.6798 32.7509 39.0763 33.2024 38.6284C33.6549 38.1829 34.2743 37.9076 34.9691 37.9072H41.3975C41.9323 37.9072 42.3647 37.4738 42.3647 36.9399C42.3647 36.4051 41.9313 35.9727 41.3975 35.9727H38.1414V35.1989C38.1414 34.6641 37.708 34.2307 37.1732 34.2307C36.6384 34.2307 36.205 34.6641 36.205 35.1989V35.9727H34.9676C33.7515 35.9722 32.6411 36.4614 31.8407 37.2519C31.0399 38.0406 30.5386 39.1445 30.5396 40.3559C30.5391 41.5664 31.0404 42.6712 31.8407 43.4599C32.6401 44.2504 33.7515 44.7401 34.9676 44.7392H39.3783C40.073 44.7396 40.6924 45.0154 41.1449 45.4604C41.5965 45.9078 41.8704 46.5118 41.8704 47.187C41.8699 47.8623 41.5965 48.4658 41.1449 48.9132C40.6925 49.3587 40.0731 49.634 39.3783 49.6345H32.9499C32.4151 49.6345 31.9817 50.0678 31.9817 50.6026C31.9817 51.1374 32.4151 51.5708 32.9499 51.5708H36.206V52.3446C36.206 52.8794 36.6394 53.3128 37.1742 53.3128C37.7089 53.3128 38.1423 52.8794 38.1423 52.3446V51.5708H39.3798C40.5959 51.5713 41.7063 51.0821 42.5066 50.2915C43.3074 49.5029 43.8088 48.399 43.8078 47.1875C43.8083 45.9761 43.307 44.8722 42.5066 44.0836C41.7073 43.2912 40.5959 42.8015 39.3798 42.8024Z" fill="black"/>
<path d="M10.8684 14.3521L10.8693 14.3516H10.8707L10.8684 14.3521Z" fill="black"/>
<path d="M8.69351 20.8682C9.19899 22.579 10.7614 23.689 12.4615 23.6881C12.8294 23.6881 13.2042 23.6361 13.572 23.5277C15.2833 23.0218 16.3932 21.4598 16.3928 19.7597C16.3928 19.3919 16.3407 19.0171 16.2323 18.6483L15.7496 17.0105C15.2442 15.2997 13.6822 14.1892 11.9816 14.1897C11.6152 14.1897 11.2404 14.2418 10.8712 14.3511H10.8698C9.15991 14.857 8.04982 16.4185 8.05029 18.1182C8.05029 18.4861 8.10238 18.8609 8.21073 19.2296L8.69351 20.8682ZM11.4171 16.2073L11.419 16.2069C11.6069 16.1511 11.7952 16.1255 11.9812 16.125C12.8396 16.1255 13.6386 16.6882 13.8925 17.5568L14.3752 19.1956C14.431 19.3848 14.457 19.5736 14.457 19.7596C14.4566 20.619 13.8943 21.417 13.0257 21.6709C12.8355 21.7267 12.6472 21.7528 12.4617 21.7528C11.6023 21.7523 10.8043 21.1901 10.5504 20.3215L10.0677 18.6827C10.0119 18.492 9.98587 18.3042 9.98587 18.1182C9.98587 17.2593 10.5481 16.4608 11.4171 16.2073Z" fill="black"/>
</svg>