<svg width="402" height="122" viewBox="0 0 402 122" fill="none" xmlns="http://www.w3.org/2000/svg">
<g filter="url(#filter0_bd_1_588)">
<path fill-rule="evenodd" clip-rule="evenodd" d="M385.541 4C391.064 4 395.541 8.47715 395.541 14V104C395.541 109.523 391.064 114 385.541 114H16C10.4771 114 5.99997 109.523 5.99997 104V16C5.99997 9.37258 11.3725 4 17.9999 4H149.921C153.482 4 156.859 5.58187 159.139 8.31778L162.543 12.4018C164.443 14.6818 167.257 16 170.225 16H233.921C237.482 16 240.859 14.4181 243.139 11.6822L245.943 8.31779C248.223 5.58188 251.6 4 255.162 4H385.541Z" fill="url(#paint0_linear_1_588)" shape-rendering="crispEdges"/>
</g>
<defs>
<filter id="filter0_bd_1_588" x="-34" y="-36" width="469.541" height="190" filterUnits="userSpaceOnUse" color-interpolation-filters="sRGB">
<feFlood flood-opacity="0" result="BackgroundImageFix"/>
<feGaussianBlur in="BackgroundImageFix" stdDeviation="20"/>
<feComposite in2="SourceAlpha" operator="in" result="effect1_backgroundBlur_1_588"/>
<feColorMatrix in="SourceAlpha" type="matrix" values="0 0 0 0 0 0 0 0 0 0 0 0 0 0 0 0 0 0 127 0" result="hardAlpha"/>
<feMorphology radius="2" operator="erode" in="SourceAlpha" result="effect2_dropShadow_1_588"/>
<feOffset dy="2"/>
<feGaussianBlur stdDeviation="4"/>
<feComposite in2="hardAlpha" operator="out"/>
<feColorMatrix type="matrix" values="0 0 0 0 0 0 0 0 0 0 0 0 0 0 0 0 0 0 0.2 0"/>
<feBlend mode="normal" in2="effect1_backgroundBlur_1_588" result="effect2_dropShadow_1_588"/>
<feBlend mode="normal" in="SourceGraphic" in2="effect2_dropShadow_1_588" result="shape"/>
</filter>
<linearGradient id="paint0_linear_1_588" x1="202.541" y1="-8" x2="202.541" y2="225" gradientUnits="userSpaceOnUse">
<stop stop-color="white" stop-opacity="0.4"/>
<stop offset="1" stop-color="white" stop-opacity="0.1"/>
</linearGradient>
</defs>
</svg>
