<svg width="78" height="47" viewBox="0 0 78 47" fill="none" xmlns="http://www.w3.org/2000/svg">
<circle cx="34.5311" cy="12.2054" r="6.29866" stroke="black" stroke-width="2"/>
<path d="M45.935 29.6669H23.127C23.6511 24.0753 28.5274 19.6456 34.531 19.6456C40.5346 19.6456 45.4108 24.0753 45.935 29.6669Z" stroke="black" stroke-width="2"/>
<rect x="67.6934" y="1" width="34.8" height="66.6933" rx="1" transform="rotate(90 67.6934 1)" stroke="black" stroke-width="2"/>
<path d="M7.35995 35.5733L7.35995 43.3866C7.35995 44.4912 8.25538 45.3866 9.35994 45.3866L74.0532 45.3866C75.1578 45.3866 76.0532 44.4912 76.0532 43.3866L76.0532 13.04C76.0532 11.9354 75.1578 11.04 74.0532 11.04L67.4666 11.04" stroke="black" stroke-width="2"/>
<path d="M25.1468 8.58666H12.8801V8.58666C12.8801 10.9578 10.9579 12.88 8.58677 12.88H7.36011V23.3067H7.97344C10.6833 23.3067 12.8801 25.5034 12.8801 28.2133V28.2133H19.0134" stroke="black" stroke-width="2" stroke-linejoin="round"/>
<path d="M44.1601 8.58654H56.4268V8.58654C56.4268 10.9577 58.349 12.8799 60.7201 12.8799H61.9468V23.3065H61.3334C58.6236 23.3065 56.4268 25.5033 56.4268 28.2132V28.2132H50.2935" stroke="black" stroke-width="2" stroke-linejoin="round"/>
</svg>
