<svg width="64" height="64" viewBox="0 0 64 64" fill="none" xmlns="http://www.w3.org/2000/svg">
<path d="M16.709 22.6855C18.0518 23.8532 19.8687 24.5504 21.8537 24.5508H24.9398C26.3642 24.5502 27.6334 25.0556 28.5251 25.8331C29.4178 26.6158 29.9244 27.6307 29.9249 28.7379C29.9232 29.8451 29.4178 30.8599 28.5251 31.6426C27.6335 32.4195 26.3642 32.9255 24.9398 32.925H23.5696L23.3928 32.9067L23.216 32.925H18.252C17.596 32.925 17.0644 33.4566 17.0644 34.1126C17.0644 34.7686 17.596 35.3003 18.252 35.3003H22.2057V38.4325C22.2057 39.0885 22.7374 39.6202 23.3934 39.6202C24.0494 39.6202 24.581 39.0885 24.581 38.4325V35.3003H24.941C26.9256 35.2997 28.7429 34.602 30.0857 33.435C31.4268 32.273 32.3025 30.6005 32.3013 28.7403C32.303 26.8802 31.4262 25.2077 30.0857 24.0457C28.7429 22.878 26.926 22.1808 24.941 22.1804H21.8549C20.4305 22.181 19.1613 21.6756 18.2696 20.8981C17.3769 20.1154 16.8703 19.1006 16.8698 17.9933C16.8715 16.8861 17.3769 15.8713 18.2696 15.0886C19.1612 14.3117 20.4305 13.8057 21.8549 13.8063H28.5421C29.1981 13.8063 29.7286 13.2746 29.7286 12.6197C29.7286 11.9637 29.197 11.4332 28.5421 11.4332H24.5816V8.32098C24.5816 7.66498 24.0499 7.13333 23.3939 7.13333C22.7379 7.13333 22.2063 7.66498 22.2063 8.32098V11.4332H21.8537C19.8692 11.4338 18.0518 12.1314 16.709 13.2985C15.3679 14.4605 14.4922 16.133 14.4934 17.9932C14.4923 19.85 15.3679 21.5224 16.709 22.6855Z" fill="black"/>
<path d="M36.634 40.5115C32.8927 43.4248 28.189 45.16 23.08 45.16C10.8855 45.16 1 35.2744 1 23.08C1 10.8855 10.8855 1 23.08 1C35.2744 1 45.16 10.8855 45.16 23.08C45.16 24.6746 44.9909 26.2297 44.6698 27.7284" stroke="black" stroke-width="2"/>
<circle cx="45.7733" cy="37.1865" r="9.42666" stroke="black" stroke-width="2"/>
<path d="M62.5282 62.5598H29.0182C29.5537 54.1218 36.8199 47.3865 45.7732 47.3865C54.7266 47.3865 61.9927 54.1218 62.5282 62.5598Z" stroke="black" stroke-width="2"/>
</svg>
