<svg width="70" height="62" viewBox="0 0 70 62" fill="none" xmlns="http://www.w3.org/2000/svg">
<circle cx="29.6465" cy="17.5117" r="16.5117" stroke="black" stroke-width="2"/>
<path d="M45.0523 38.0322C40.6408 35.4758 35.4377 34 29.866 34C13.9237 34 1 46.0823 1 60.9866H54.9733" stroke="black" stroke-width="2"/>
<circle cx="54.9734" cy="47.2216" r="13.72" stroke="black" stroke-width="2"/>
<path d="M54.0486 38.4284C54.3885 37.6026 55.5582 37.6026 55.8981 38.4284L57.6396 42.6597C57.7833 43.0089 58.1115 43.2474 58.4881 43.2762L63.0504 43.6249C63.9409 43.693 64.3023 44.8054 63.6219 45.3839L60.1359 48.3476C59.8482 48.5923 59.7228 48.9781 59.8118 49.3451L60.89 53.7919C61.1004 54.6598 60.1541 55.3473 59.3937 54.879L55.4978 52.4795C55.1762 52.2814 54.7705 52.2814 54.4489 52.4795L50.553 54.879C49.7925 55.3473 48.8463 54.6598 49.0567 53.7919L50.1349 49.3451C50.2239 48.9781 50.0985 48.5923 49.8108 48.3476L46.3248 45.3839C45.6444 44.8054 46.0058 43.693 46.8963 43.6249L51.4586 43.2762C51.8351 43.2474 52.1634 43.0089 52.3071 42.6597L54.0486 38.4284Z" stroke="black" stroke-width="2"/>
</svg>
