<svg width="402" height="122" viewBox="0 0 402 122" fill="none" xmlns="http://www.w3.org/2000/svg">
<g filter="url(#filter0_bd_1_585)">
<path fill-rule="evenodd" clip-rule="evenodd" d="M385.541 114C391.064 114 395.541 109.523 395.541 104V14C395.541 8.47715 391.064 4 385.541 4H16C10.4771 4 5.99997 8.47715 5.99997 14V102C5.99997 108.627 11.3725 114 17.9999 114H149.921C153.482 114 156.859 112.418 159.139 109.682L162.543 105.598C164.443 103.318 167.257 102 170.225 102H233.921C237.482 102 240.859 103.582 243.139 106.318L245.943 109.682C248.223 112.418 251.6 114 255.162 114H385.541Z" fill="url(#paint0_linear_1_585)" shape-rendering="crispEdges"/>
</g>
<defs>
<filter id="filter0_bd_1_585" x="-34" y="-36" width="469.541" height="190" filterUnits="userSpaceOnUse" color-interpolation-filters="sRGB">
<feFlood flood-opacity="0" result="BackgroundImageFix"/>
<feGaussianBlur in="BackgroundImageFix" stdDeviation="20"/>
<feComposite in2="SourceAlpha" operator="in" result="effect1_backgroundBlur_1_585"/>
<feColorMatrix in="SourceAlpha" type="matrix" values="0 0 0 0 0 0 0 0 0 0 0 0 0 0 0 0 0 0 127 0" result="hardAlpha"/>
<feMorphology radius="2" operator="erode" in="SourceAlpha" result="effect2_dropShadow_1_585"/>
<feOffset dy="2"/>
<feGaussianBlur stdDeviation="4"/>
<feComposite in2="hardAlpha" operator="out"/>
<feColorMatrix type="matrix" values="0 0 0 0 0 0 0 0 0 0 0 0 0 0 0 0 0 0 0.2 0"/>
<feBlend mode="normal" in2="effect1_backgroundBlur_1_585" result="effect2_dropShadow_1_585"/>
<feBlend mode="normal" in="SourceGraphic" in2="effect2_dropShadow_1_585" result="shape"/>
</filter>
<linearGradient id="paint0_linear_1_585" x1="202.541" y1="126" x2="202.541" y2="-107" gradientUnits="userSpaceOnUse">
<stop stop-color="white" stop-opacity="0.4"/>
<stop offset="1" stop-color="white" stop-opacity="0.1"/>
</linearGradient>
</defs>
</svg>
