<svg width="244" height="302" viewBox="0 0 244 302" fill="none" xmlns="http://www.w3.org/2000/svg">
<g clip-path="url(#clip0_1_2357)">
<g style="mix-blend-mode:overlay" opacity="0.2">
<path d="M244.258 331H7.61792V269.347L135.911 159.187C146.791 149.516 154.649 140.6 159.485 132.44C164.622 123.978 167.191 115.213 167.191 106.147C167.191 97.9866 165.076 90.7333 160.845 84.3866C156.916 78.0399 151.476 73.0533 144.525 69.4266C137.573 65.7999 129.867 63.9866 121.405 63.9866C109.013 63.9866 96.6224 67.6133 84.2313 74.8666C72.1424 81.8177 60.5068 93.4533 49.3246 109.773L-0.0887451 60.3599C15.3246 41.0177 33.3068 26.0577 53.8579 15.4799C74.7113 4.90217 98.4357 -0.386719 125.031 -0.386719C148.907 -0.386719 169.609 4.14662 187.138 13.2133C204.667 21.9777 218.267 34.2177 227.938 49.9333C237.609 65.6488 242.445 83.7822 242.445 104.333C242.445 117.933 239.725 131.382 234.285 144.68C228.845 157.676 220.382 170.822 208.898 184.12C197.716 197.418 183.209 211.32 165.378 225.827C161.147 229.453 155.405 234.138 148.151 239.88C141.2 245.32 134.098 250.76 126.845 256.2C119.893 261.64 114 266.022 109.165 269.347H244.258V331Z" fill="white"/>
</g>
</g>
<defs>
<clipPath id="clip0_1_2357">
<rect width="244" height="302" fill="white"/>
</clipPath>
</defs>
</svg>
