<svg width="261" height="302" viewBox="0 0 261 302" fill="none" xmlns="http://www.w3.org/2000/svg">
<g clip-path="url(#clip0_1_2358)">
<g style="mix-blend-mode:overlay" opacity="0.2">
<path d="M-0.302979 286.573L49.1104 237.16C58.7815 249.249 69.9637 258.467 82.657 264.813C95.3504 270.858 109.253 273.88 124.364 273.88C140.986 273.88 154.737 270.404 165.617 263.453C176.497 256.502 181.937 246.378 181.937 233.08C181.937 225.222 179.519 218.573 174.684 213.133C170.15 207.391 163.804 203.16 155.644 200.44C147.484 197.418 137.813 195.907 126.63 195.907H98.0704V132.893H126.63C135.999 132.893 144.008 131.533 150.657 128.813C157.608 125.791 163.048 121.862 166.977 117.027C170.906 111.889 172.87 106.298 172.87 100.253C172.87 88.4666 168.639 79.5511 160.177 73.5066C151.715 67.1599 140.986 63.9866 127.99 63.9866C113.786 63.9866 100.79 67.1599 89.0037 73.5066C77.5192 79.5511 67.2437 88.6177 58.177 100.707L8.76369 51.2933C24.4792 34.3688 42.7637 21.5244 63.617 12.7599C84.7726 3.9955 107.288 -0.386719 131.164 -0.386719C155.341 -0.386719 176.497 3.8444 194.63 12.3066C212.764 20.4666 226.817 31.4977 236.79 45.3999C246.764 58.9999 251.75 74.2622 251.75 91.1866C251.75 106.6 247.217 120.049 238.15 131.533C229.084 143.018 216.39 151.933 200.07 158.28C184.053 164.627 165.315 167.8 143.857 167.8L157.457 151.027C178.008 151.027 195.99 154.653 211.404 161.907C226.817 169.16 238.906 179.284 247.67 192.28C256.435 205.276 260.817 220.387 260.817 237.613C260.817 256.653 255.226 273.729 244.044 288.84C232.861 303.951 217.297 316.04 197.35 325.107C177.404 333.871 154.133 338.253 127.537 338.253C102.755 338.253 79.3326 333.871 57.2704 325.107C35.2081 316.342 16.017 303.498 -0.302979 286.573Z" fill="white"/>
</g>
</g>
<defs>
<clipPath id="clip0_1_2358">
<rect width="261" height="302" fill="white"/>
</clipPath>
</defs>
</svg>
