
<svg width="245" height="332" viewBox="0 0 245 332" fill="none" xmlns="http://www.w3.org/2000/svg">
<g style="mix-blend-mode:overlay" opacity="0.2">
<path d="M244.347 331.387H7.70667V269.733L136 159.573C146.88 149.902 154.738 140.987 159.573 132.827C164.711 124.364 167.28 115.6 167.28 106.533C167.28 98.3733 165.164 91.12 160.933 84.7733C157.004 78.4267 151.564 73.44 144.613 69.8133C137.662 66.1867 129.956 64.3733 121.493 64.3733C109.102 64.3733 96.7111 68 84.32 75.2533C72.2311 82.2044 60.5956 93.84 49.4133 110.16L0 60.7467C15.4133 41.4044 33.3956 26.4444 53.9467 15.8667C74.8 5.28889 98.5245 0 125.12 0C148.996 0 169.698 4.53334 187.227 13.6C204.756 22.3644 218.356 34.6044 228.027 50.32C237.698 66.0356 242.533 84.1689 242.533 104.72C242.533 118.32 239.813 131.769 234.373 145.067C228.933 158.062 220.471 171.209 208.987 184.507C197.804 197.804 183.298 211.707 165.467 226.213C161.236 229.84 155.493 234.524 148.24 240.267C141.289 245.707 134.187 251.147 126.933 256.587C119.982 262.027 114.089 266.409 109.253 269.733H244.347V331.387Z" fill="white"/>
</g>
</svg>
