<svg xmlns="http://www.w3.org/2000/svg" width="371" height="44" viewBox="0 0 371 44" fill="none">
<path fill-rule="evenodd" clip-rule="evenodd" d="M186 0L167.246 10.8762C167.093 10.9648 167 11.127 167 11.3042V32.7714C167 32.9478 167.094 33.1109 167.246 33.1995L185.754 43.9335C185.906 44.0222 186.094 44.0222 186.246 43.9335L204.754 33.1995C204.907 33.1109 205 32.9487 205 32.7714V11.3042C205 11.1278 204.906 10.9648 204.754 10.8762L186 0ZM186.207 6.10529L199.634 13.892C199.762 13.9664 199.841 14.1027 199.841 14.2507V29.825C199.841 29.973 199.763 30.1101 199.634 30.1837L186.207 37.9704C186.079 38.0448 185.922 38.0448 185.795 37.9704L172.367 30.1837C172.24 30.1092 172.161 29.973 172.161 29.825V14.2507C172.161 14.1027 172.239 13.9656 172.367 13.892L185.795 6.10529C185.922 6.03088 186.079 6.03088 186.207 6.10529Z" fill="white"/>
<path d="M16.7576 16.7931C16.885 17.0182 16.8531 17.1773 16.6917 17.3069L14.6728 18.8438C14.4478 19.0688 14.1931 18.9415 14.0635 18.7801C12.7495 16.9841 11.3058 16.1838 9.12552 16.1838C5.91989 16.1838 3.80327 18.4277 3.80327 21.6015C3.80327 24.7753 5.95172 27.117 9.12552 27.117C11.3058 27.117 12.845 26.3463 14.159 24.4229C14.3205 24.2615 14.4796 24.2615 14.6728 24.4229L16.6917 26.0257C16.8531 26.1872 16.885 26.3781 16.7576 26.5373C15.123 29.2314 12.3334 30.6409 9.12779 30.6409C3.99879 30.6432 0.0883789 26.7646 0.0883789 21.6015C0.0883789 16.4384 3.99879 12.6576 9.12779 12.6576C12.1402 12.6576 15.2185 14.1649 16.7576 16.7931Z" fill="white"/>
<path d="M29.0822 12.9145C32.9608 12.9145 35.9436 15.6722 35.9436 19.2939C35.9436 21.6015 34.6932 23.5908 32.8676 24.648L35.6253 29.9384C35.7526 30.1635 35.5935 30.3863 35.3366 30.3863H32.1969C31.94 30.3863 31.749 30.2908 31.6194 30.0657L29.4732 25.7052C29.2482 25.7393 29.089 25.7393 28.9594 25.7393H24.4716V29.9384C24.4716 30.2272 24.3101 30.3863 24.0237 30.3863H21.2023C20.9135 30.3863 20.7544 30.2249 20.7544 29.9384V13.3624C20.7544 13.0736 20.9158 12.9145 21.2023 12.9145H29.089H29.0822ZM29.0822 22.2108C31.1011 22.2108 32.2242 20.9286 32.2242 19.2939C32.2242 17.6593 31.1011 16.4407 29.0822 16.4407H24.467V22.2108H29.0822Z" fill="white"/>
<path d="M49.1981 29.9384C49.1981 30.2272 49.039 30.3863 48.7502 30.3863H45.9288C45.6401 30.3863 45.4809 30.2249 45.4809 29.9384V25.9302L38.2353 13.2669C38.1398 13.1055 38.2353 12.9145 38.4604 12.9145H41.9866C42.1457 12.9145 42.3071 13.0123 42.4026 13.1714L47.3088 22.2449H47.5339L52.2128 13.2032C52.3082 13.01 52.4356 12.9145 52.6606 12.9145H56.155C56.3801 12.9145 56.4756 13.0759 56.3801 13.2987L49.1981 25.9302V29.9384Z" fill="white"/>
<path d="M68.3046 12.9145C72.1832 12.9145 75.1024 15.7041 75.1024 19.2939C75.1024 22.8838 72.1855 25.7393 68.3046 25.7393H63.6576V29.9384C63.6576 30.2272 63.4962 30.3863 63.2097 30.3863H60.3883C60.0996 30.3863 59.9404 30.2249 59.9404 29.9384V13.3624C59.9404 13.0736 60.1018 12.9145 60.3883 12.9145H68.3069H68.3046ZM68.3046 22.2108C70.2598 22.2108 71.3829 20.9922 71.3829 19.2939C71.3829 17.5956 70.2598 16.4407 68.3046 16.4407H63.6576V22.2108H68.3046Z" fill="white"/>
<path d="M93.088 12.9145C93.3767 12.9145 93.5359 13.0759 93.5359 13.3624V15.9928C93.5359 16.2815 93.3744 16.4407 93.088 16.4407H87.5111V29.9361C87.5111 30.2249 87.3497 30.384 87.0632 30.384H84.2418C83.9531 30.384 83.7939 30.2226 83.7939 29.9361V16.4407H78.217C77.9283 16.4407 77.7692 16.2793 77.7692 15.9928V13.3624C77.7692 13.0736 77.9306 12.9145 78.217 12.9145H93.0925H93.088Z" fill="white"/>
<path d="M107.356 26.9238H98.6352L97.4166 29.9998C97.3189 30.2567 97.1279 30.384 96.8733 30.384H93.6995C93.3789 30.384 93.2834 30.2226 93.3789 29.9362L100.943 13.1691C101.009 13.01 101.136 12.9122 101.359 12.9122H105.015C105.24 12.9122 105.367 13.01 105.431 13.1691L112.645 29.8725C112.74 30.1294 112.579 30.3863 112.292 30.3863H109.248C108.927 30.3863 108.702 30.2249 108.575 29.9384L107.356 26.9261V26.9238ZM99.9811 23.5567H106.072L103.25 16.377H102.898L99.9811 23.5567Z" fill="white"/>
<path d="M119.458 12.9145C119.747 12.9145 119.906 13.0759 119.906 13.3624V26.8601H129.875C130.164 26.8601 130.323 27.0193 130.323 27.308V29.9384C130.323 30.2272 130.164 30.3863 129.875 30.3863H116.635C116.346 30.3863 116.187 30.2249 116.187 29.9384V13.3624C116.187 13.0736 116.348 12.9145 116.635 12.9145H119.456H119.458Z" fill="white"/>
<path d="M147.327 12.9145C147.615 12.9145 147.775 13.0759 147.775 13.3624V15.9291C147.775 16.2179 147.615 16.377 147.327 16.377H137.614V19.6463H146.142C146.431 19.6463 146.59 19.8077 146.59 20.0942V22.6587C146.59 22.9474 146.429 23.1066 146.142 23.1066H137.614V26.8897H147.584C147.872 26.8897 148.031 27.0488 148.031 27.3375V29.9339C148.031 30.2226 147.872 30.3817 147.584 30.3817H134.343C134.054 30.3817 133.895 30.2203 133.895 29.9339V13.3624C133.895 13.1055 134.12 12.9145 134.343 12.9145H147.327Z" fill="white"/>
<path d="M236.339 13.562C236.611 13.562 236.761 13.7143 236.761 13.9848V16.4061C236.761 16.6789 236.611 16.829 236.339 16.829H227.172V19.9141H235.22C235.493 19.9141 235.643 20.0664 235.643 20.337V22.7582C235.643 23.0311 235.491 23.1811 235.22 23.1811H227.172V26.7528H236.582C236.855 26.7528 237.005 26.9028 237.005 27.1756V29.6265C237.005 29.8993 236.855 30.0493 236.582 30.0493H224.084C223.812 30.0493 223.662 29.897 223.662 29.6265V13.9871C223.662 13.7461 223.873 13.5642 224.084 13.5642H236.339V13.562Z" fill="#FFD550"/>
<path d="M244.389 13.562C244.63 13.562 244.812 13.6529 244.962 13.8643L248.716 19.0979H248.988L252.771 13.8348C252.892 13.6529 253.074 13.562 253.315 13.562H256.855C257.066 13.562 257.187 13.7734 257.034 13.9848L251.196 21.4282L257.43 29.4764C257.641 29.7492 257.55 30.0516 257.218 30.0516H253.799C253.497 30.0516 253.256 29.9311 253.103 29.7174L248.868 23.7881H248.595L244.571 29.6878C244.391 29.9288 244.148 30.0516 243.816 30.0516H240.426C240.154 30.0516 240.094 29.8106 240.244 29.5969L246.508 21.5169L240.697 14.078C240.547 13.8666 240.606 13.562 240.94 13.562H244.389Z" fill="#FFD550"/>
<path d="M275.163 17.2246C275.284 17.436 275.254 17.5883 275.102 17.7088L273.197 19.1593C272.985 19.3708 272.742 19.2503 272.621 19.0979C271.38 17.4042 270.018 16.6471 267.961 16.6471C264.935 16.6471 262.939 18.766 262.939 21.7602C262.939 24.7544 264.964 26.9665 267.961 26.9665C270.018 26.9665 271.471 26.239 272.71 24.4247C272.862 24.2724 273.012 24.2724 273.194 24.4247L275.099 25.9366C275.252 26.0889 275.281 26.2685 275.161 26.4209C273.617 28.9626 270.984 30.2949 267.958 30.2949C263.118 30.2949 259.426 26.6346 259.426 21.7625C259.426 16.8904 263.12 13.321 267.961 13.321C270.805 13.321 273.71 14.7442 275.163 17.2246Z" fill="#FFD550"/>
<path d="M282.015 13.562C282.288 13.562 282.438 13.7143 282.438 13.9848V19.8232H289.943V13.9871C289.943 13.7143 290.093 13.5642 290.366 13.5642H293.028C293.301 13.5642 293.451 13.7165 293.451 13.9871V29.631C293.451 29.9038 293.299 30.0539 293.028 30.0539H290.366C290.093 30.0539 289.943 29.9016 289.943 29.631V23.1561H282.438V29.631C282.438 29.9038 282.286 30.0539 282.015 30.0539H279.351C279.078 30.0539 278.928 29.9016 278.928 29.631V13.9871C278.928 13.7143 279.08 13.5642 279.351 13.5642H282.015V13.562Z" fill="#FFD550"/>
<path d="M309.986 26.7869H301.756L300.606 29.6902C300.515 29.9312 300.333 30.0539 300.092 30.0539H297.096C296.793 30.0539 296.702 29.9016 296.793 29.6311L303.934 13.8053C303.996 13.6552 304.116 13.5643 304.328 13.5643H307.776C307.988 13.5643 308.111 13.6552 308.17 13.8053L314.979 29.5697C315.07 29.8107 314.917 30.0539 314.645 30.0539H311.771C311.469 30.0539 311.255 29.9016 311.134 29.6311L309.984 26.7869H309.986ZM303.027 23.6086H308.777L306.115 16.8313H305.78L303.027 23.6086Z" fill="#FFD550"/>
<path d="M330.454 30.0539C330.243 30.0539 330.091 29.9948 330 29.8425L325.853 24.6089L321.679 18.7092L321.526 18.7387L321.738 23.8223V29.6311C321.738 29.9039 321.588 30.0539 321.315 30.0539H318.744C318.471 30.0539 318.321 29.9016 318.321 29.6311V13.9871C318.321 13.7143 318.473 13.5643 318.744 13.5643H321.074C321.315 13.5643 321.497 13.6257 321.649 13.7757L326.187 19.5254L330 24.9113L330.15 24.8817L329.938 19.7686V13.9871C329.938 13.7143 330.091 13.5643 330.361 13.5643H332.933C333.205 13.5643 333.355 13.7166 333.355 13.9871V29.6311C333.355 29.9039 333.205 30.0539 332.933 30.0539H330.452H330.454Z" fill="#FFD550"/>
<path d="M352.762 21.0963C353.035 21.0963 353.185 21.2487 353.185 21.5192V29.6288C353.185 29.9016 353.033 30.0516 352.762 30.0516H350.975C350.702 30.0516 350.552 29.9607 350.491 29.7493L350.159 28.7512C348.979 29.8106 347.406 30.2949 345.498 30.2949C340.656 30.2949 337.268 26.7255 337.268 21.7625C337.268 16.7994 340.96 13.321 345.801 13.321C348.645 13.321 351.521 14.7737 353.003 17.1336C353.124 17.3451 353.094 17.4974 352.942 17.6179L351.036 19.0115C350.825 19.223 350.582 19.1025 350.461 18.9502C349.249 17.4065 347.829 16.6517 345.801 16.6517C342.775 16.6517 340.778 18.7706 340.778 21.7647C340.778 24.7589 342.686 26.971 345.651 26.971C347.588 26.971 348.645 26.4868 349.704 25.5183V21.5238C349.704 21.2509 349.857 21.1009 350.127 21.1009H352.76L352.762 21.0963Z" fill="#FFD550"/>
<path d="M370.334 13.562C370.607 13.562 370.757 13.7143 370.757 13.9848V16.4061C370.757 16.6789 370.607 16.829 370.334 16.829H361.167V19.9141H369.215C369.488 19.9141 369.638 20.0664 369.638 20.337V22.7582C369.638 23.0311 369.486 23.1811 369.215 23.1811H361.167V26.7528H370.577C370.85 26.7528 371 26.9028 371 27.1756V29.6265C371 29.8993 370.85 30.0493 370.577 30.0493H358.082C357.809 30.0493 357.659 29.897 357.659 29.6265V13.9871C357.659 13.7461 357.871 13.5642 358.082 13.5642H370.336L370.334 13.562Z" fill="#FFD550"/>
</svg>