<svg width="316" height="343" viewBox="0 0 316 343" fill="none" xmlns="http://www.w3.org/2000/svg">
<g clip-path="url(#clip0_3_4)">
<path opacity="0.2" fill-rule="evenodd" clip-rule="evenodd" d="M158.003 0L2.04201 90.4698C0.775273 91.207 0 92.5563 0 94.0307V272.599C0 274.066 0.782195 275.422 2.04201 276.16L155.955 365.447C157.221 366.184 158.779 366.184 160.045 365.447L313.958 276.16C315.225 275.422 316 274.073 316 272.599V94.0307C316 92.5632 315.218 91.207 313.958 90.4698L158.003 0ZM159.72 50.7849L271.38 115.556C272.439 116.175 273.097 117.309 273.097 118.54V248.09C273.097 249.321 272.446 250.461 271.38 251.073L159.72 315.845C158.661 316.464 157.353 316.464 156.294 315.845L44.6336 251.073C43.5745 250.454 42.9169 249.321 42.9169 248.09V118.54C42.9169 117.309 43.5676 116.168 44.6336 115.556L156.294 50.7849C157.353 50.166 158.661 50.166 159.72 50.7849Z" fill="white"/>
</g>
<defs>
<clipPath id="clip0_3_4">
<rect width="316" height="343" fill="white"/>
</clipPath>
</defs>
</svg>
